<svg width="30" height="30" viewBox="0 0 30 30" fill="none" xmlns="http://www.w3.org/2000/svg">
<path d="M13.376 21H11.28V9.832H15.52C16.608 9.832 17.44 10.1413 18.016 10.76C18.592 11.3787 18.88 12.2213 18.88 13.288C18.88 14.1093 18.688 14.8027 18.304 15.368C17.9307 15.9227 17.392 16.2747 16.688 16.424L19.072 21H16.768L14.64 16.664H13.376V21ZM15.088 15.032C15.6533 15.032 16.0587 14.92 16.304 14.696C16.5493 14.4613 16.672 14.0933 16.672 13.592V12.984C16.672 12.4827 16.5493 12.12 16.304 11.896C16.0587 11.6613 15.6533 11.544 15.088 11.544H13.376V15.032H15.088Z" fill="#8B5CF6"/>
<rect x="1" y="1" width="28" height="28" rx="4" stroke="#8B5CF6" stroke-width="2"/>
</svg>
